<svg width="178" height="37" viewBox="0 0 178 37" fill="none" xmlns="http://www.w3.org/2000/svg">
<path d="M0.472 2.4H14.152C17.704 2.4 20.84 3.12 23.56 4.56C26.28 5.968 28.392 7.952 29.896 10.512C31.4 13.04 32.152 15.936 32.152 19.2C32.152 22.464 31.4 25.376 29.896 27.936C28.392 30.464 26.28 32.448 23.56 33.888C20.84 35.296 17.704 36 14.152 36H0.472V2.4ZM13.96 32.928C16.904 32.928 19.48 32.352 21.688 31.2C23.896 30.016 25.608 28.4 26.824 26.352C28.04 24.272 28.648 21.888 28.648 19.2C28.648 16.512 28.04 14.144 26.824 12.096C25.608 10.016 23.896 8.4 21.688 7.248C19.48 6.064 16.904 5.472 13.96 5.472H4.024V32.928H13.96ZM53.1843 5.28C49.8883 5.28 47.4243 6.032 45.7923 7.536C44.1923 9.008 43.3923 11.152 43.3923 13.968V18.672H59.4243V21.744H43.3923V36H39.8403V13.92C39.8403 10.24 40.9923 7.36 43.2963 5.28C45.6003 3.168 48.8483 2.112 53.0403 2.112C57.1043 2.112 60.3683 2.992 62.8323 4.752L61.5363 7.68C59.3603 6.08 56.5763 5.28 53.1843 5.28ZM75.3873 36.24C73.1153 36.24 71.3553 35.6 70.1073 34.32C68.8913 33.04 68.2833 31.264 68.2833 28.992V0.383998H71.6913V28.704C71.6913 30.208 72.0433 31.36 72.7473 32.16C73.4513 32.928 74.5073 33.312 75.9153 33.312C76.8113 33.312 77.5793 33.168 78.2193 32.88L78.4593 35.712C77.4673 36.064 76.4433 36.24 75.3873 36.24ZM92.947 36.24C90.515 36.24 88.323 35.696 86.371 34.608C84.419 33.488 82.883 31.952 81.763 30C80.643 28.048 80.083 25.84 80.083 23.376C80.083 20.912 80.643 18.704 81.763 16.752C82.883 14.8 84.419 13.28 86.371 12.192C88.323 11.104 90.515 10.56 92.947 10.56C95.379 10.56 97.571 11.104 99.523 12.192C101.475 13.28 102.995 14.8 104.083 16.752C105.203 18.704 105.763 20.912 105.763 23.376C105.763 25.84 105.203 28.048 104.083 30C102.995 31.952 101.475 33.488 99.523 34.608C97.571 35.696 95.379 36.24 92.947 36.24ZM92.947 33.216C94.739 33.216 96.339 32.816 97.747 32.016C99.187 31.184 100.307 30.016 101.107 28.512C101.907 27.008 102.307 25.296 102.307 23.376C102.307 21.456 101.907 19.744 101.107 18.24C100.307 16.736 99.187 15.584 97.747 14.784C96.339 13.952 94.739 13.536 92.947 13.536C91.155 13.536 89.539 13.952 88.099 14.784C86.691 15.584 85.571 16.736 84.739 18.24C83.939 19.744 83.539 21.456 83.539 23.376C83.539 25.296 83.939 27.008 84.739 28.512C85.571 30.016 86.691 31.184 88.099 32.016C89.539 32.816 91.155 33.216 92.947 33.216ZM115.985 15.696C116.785 14 117.969 12.72 119.537 11.856C121.137 10.992 123.105 10.56 125.441 10.56V13.872L124.625 13.824C121.969 13.824 119.889 14.64 118.385 16.272C116.881 17.904 116.129 20.192 116.129 23.136V36H112.721V10.752H115.985V15.696ZM142.177 33.216C143.745 33.216 145.185 32.944 146.497 32.4C147.841 31.824 148.977 30.992 149.905 29.904L151.825 32.112C150.705 33.456 149.313 34.48 147.649 35.184C145.985 35.888 144.145 36.24 142.129 36.24C139.537 36.24 137.233 35.696 135.217 34.608C133.201 33.488 131.633 31.952 130.513 30C129.393 28.048 128.833 25.84 128.833 23.376C128.833 20.912 129.361 18.704 130.417 16.752C131.505 14.8 132.993 13.28 134.881 12.192C136.769 11.104 138.913 10.56 141.313 10.56C143.553 10.56 145.569 11.072 147.361 12.096C149.185 13.12 150.625 14.544 151.681 16.368C152.769 18.192 153.345 20.272 153.409 22.608L132.673 26.64C133.313 28.688 134.465 30.304 136.129 31.488C137.825 32.64 139.841 33.216 142.177 33.216ZM141.313 13.488C139.553 13.488 137.969 13.904 136.561 14.736C135.185 15.536 134.097 16.672 133.297 18.144C132.529 19.584 132.145 21.248 132.145 23.136C132.145 23.616 132.161 23.968 132.193 24.192L150.001 20.736C149.617 18.624 148.641 16.896 147.073 15.552C145.505 14.176 143.585 13.488 141.313 13.488ZM167.114 36.24C165.066 36.24 163.098 35.952 161.21 35.376C159.354 34.768 157.898 34.016 156.842 33.12L158.378 30.432C159.434 31.264 160.762 31.952 162.362 32.496C163.962 33.008 165.626 33.264 167.354 33.264C169.658 33.264 171.354 32.912 172.442 32.208C173.562 31.472 174.122 30.448 174.122 29.136C174.122 28.208 173.818 27.488 173.21 26.976C172.602 26.432 171.834 26.032 170.906 25.776C169.978 25.488 168.746 25.216 167.21 24.96C165.162 24.576 163.514 24.192 162.266 23.808C161.018 23.392 159.946 22.704 159.05 21.744C158.186 20.784 157.754 19.456 157.754 17.76C157.754 15.648 158.634 13.92 160.394 12.576C162.154 11.232 164.602 10.56 167.738 10.56C169.37 10.56 171.002 10.784 172.634 11.232C174.266 11.648 175.61 12.208 176.666 12.912L175.178 15.648C173.098 14.208 170.618 13.488 167.738 13.488C165.562 13.488 163.914 13.872 162.794 14.64C161.706 15.408 161.162 16.416 161.162 17.664C161.162 18.624 161.466 19.392 162.074 19.968C162.714 20.544 163.498 20.976 164.426 21.264C165.354 21.52 166.634 21.792 168.266 22.08C170.282 22.464 171.898 22.848 173.114 23.232C174.33 23.616 175.37 24.272 176.234 25.2C177.098 26.128 177.53 27.408 177.53 29.04C177.53 31.248 176.602 33.008 174.746 34.32C172.922 35.6 170.378 36.24 167.114 36.24Z" fill="#283A78"/>
</svg>
